#!OML:ASF H:\Dans Jumps\Project 1\Capture day 1\Session 1\subject.ASF
:FULLY-SPECIFIED
:DEGREES
311
root 0.620278 17.4726 -2.49014 5.563 -0.746099 -0.891213
lowerback 2.1946 -0.22489 -0.817951
upperback 4.75707 -0.342928 1.50685
thorax 3.67944 -0.231706 2.00727
lowerneck -12.5565 0.0096804 -1.76489
upperneck 32.9047 0.169831 0.906835
head 13.0919 -0.02894 0.687565
rclavicle -2.08724e-015 1.13307e-014
rhumerus -18.2807 -22.6546 -81.0997
rradius 20.7902
rwrist 38.8607
rhand -19.9761 -26.4107
rfingers 7.12502
rthumb 6.36293 -56.2951
lclavicle -2.08724e-015 1.13307e-014
lhumerus -16.2073 0.269219 88.8991
lradius 15.734
lwrist -0.9841
lhand -24.6891 -4.06723
lfingers 7.12502
lthumb 1.81183 25.9048
rfemur -20.7608 -2.33168 18.4975
rtibia 32.0716
rfoot -14.8873 -1.28899
rtoes 9.38214
lfemur -19.9542 7.93495 -18.9107
ltibia 28.8631
lfoot -11.6307 5.54417
ltoes 2.06319
312
root 0.620942 17.4776 -2.47291 5.6005 -0.73528 -0.893686
lowerback 2.12835 -0.244051 -0.815978
upperback 4.76215 -0.368268 1.49918
thorax 3.72309 -0.244479 1.99774
lowerneck -12.5671 0.040873 -1.75015
upperneck 33.0134 0.222411 0.873985
head 13.1399 -0.0092003 0.680618
rclavicle -3.47873e-016 -5.36719e-015
rhumerus -18.4916 -22.4953 -81.186
rradius 20.9055
rwrist 38.582
rhand -19.9706 -26.4082
rfingers 7.12502
rthumb 6.36822 -56.2925
lclavicle -3.47873e-016 -5.36719e-015
lhumerus -16.2469 0.0320117 89.015
lradius 15.7567
lwrist -1.02504
lhand -24.6981 -4.22145
lfingers 7.12502
lthumb 1.80313 25.7507
rfemur -20.6776 -2.342 18.4978
rtibia 31.9604
rfoot -14.8903 -1.29796
rtoes 9.33775
lfemur -19.8591 7.90245 -18.9064
ltibia 28.7307
lfoot -11.617 5.57046
ltoes 2.04023
313
root 0.621361 17.4823 -2.4563 5.64137 -0.730282 -0.894163
lowerback 2.06269 -0.259089 -0.81566
upperback 4.76541 -0.388048 1.49009
thorax 3.76429 -0.254473 1.9877
lowerneck -12.5765 0.0689316 -1.73588
upperneck 33.1224 0.269005 0.845992
head 13.188 0.00847214 0.674775
rclavicle 3.08116e-015 -4.17448e-015
rhumerus -18.6969 -22.3488 -81.2719
rradius 21.01
rwrist 38.3219
rhand -19.9695 -26.403
rfingers 7.12502
rthumb 6.36923 -56.2872
lclavicle 3.08116e-015 -4.17448e-015
lhumerus -16.2819 -0.17887 89.1248
lradius 15.7848
lwrist -1.05142
lhand -24.7603 -4.42568
lfingers 7.12502
lthumb 1.74303 25.5469
rfemur -20.6062 -2.3506 18.4966
rtibia 31.8575
rfoot -14.8907 -1.30043
rtoes 9.31296
lfemur -19.7724 7.87755 -18.9046
ltibia 28.6036
lfoot -11.6043 5.5945
ltoes 2.01363
314
root 0.621811 17.4868 -2.44006 5.68447 -0.727739 -0.890954
lowerback 1.99508 -0.27051 -0.816172
upperback 4.76729 -0.40294 1.47972
thorax 3.80493 -0.262012 1.97682
lowerneck -12.5748 0.0940734 -1.73276
upperneck 33.2228 0.309385 0.83254
head 13.2302 0.0239927 0.675585
rclavicle -4.82053e-015 -8.15017e-015
rhumerus -18.904 -22.1857 -81.3571
rradius 21.1148
rwrist 38.0588
rhand -19.9772 -26.3873
rfingers 7.12502
rthumb 6.36185 -56.2717
lclavicle -4.82053e-015 -8.15017e-015
lhumerus -16.3181 -0.347271 89.2302
lradius 15.8223
lwrist -1.08698
lhand -24.8458 -4.61688
lfingers 7.12502
lthumb 1.66052 25.3564
rfemur -20.5438 -2.36281 18.4918
rtibia 31.7635
rfoot -14.8886 -1.29574
rtoes 9.30243
lfemur -19.6921 7.85648 -18.9075
ltibia 28.4805
lfoot -11.594 5.61639
ltoes 1.98517
315
root 0.621759 17.4911 -2.42456 5.73118 -0.731379 -0.883947
lowerback 1.9296 -0.282321 -0.827731
upperback 4.76726 -0.418371 1.47225
thorax 3.84256 -0.270251 1.97511
lowerneck -12.5605 0.120827 -1.74322
upperneck 33.307 0.352306 0.828711
head 13.2626 0.0402409 0.682774
rclavicle 2.48481e-016 1.98785e-015
rhumerus -19.0957 -22.0022 -81.4444
rradius 21.2045
rwrist 37.8031
rhand -19.9753 -26.3793
rfingers 7.12502
rthumb 6.36363 -56.2637
lclavicle 2.48481e-016 1.98785e-015
lhumerus -16.3552 -0.463972 89.33
lradius 15.8712
lwrist -1.11882
lhand -24.9473 -4.78869
lfingers 7.12502
lthumb 1.56248 25.1853
rfemur -20.4937 -2.36672 18.4851
rtibia 31.6784
rfoot -14.8877 -1.29531
rtoes 9.28868
lfemur -19.6211 7.84912 -18.914
ltibia 28.3615
lfoot -11.5851 5.6311
ltoes 1.9548
316
root 0.621461 17.495 -2.40947 5.77534 -0.741465 -0.871502
lowerback 1.86826 -0.289813 -0.844595
upperback 4.76816 -0.427914 1.4619
thorax 3.87862 -0.275683 1.97349
lowerneck -12.5433 0.143928 -1.75704
upperneck 33.3839 0.387376 0.834951
head 13.2914 0.0539977 0.693305
rclavicle 6.5102e-015 -8.15017e-015
rhumerus -19.2732 -21.83 -81.533
rradius 21.2742
rwrist 37.5791
rhand -19.9743 -26.3748
rfingers 7.12502
rthumb 6.36465 -56.2592
lclavicle 6.5102e-015 -8.15017e-015
lhumerus -16.3895 -0.593772 89.4273
lradius 15.9345
lwrist -1.07653
lhand -25.0116 -4.86447
lfingers 7.12502
lthumb 1.50032 25.11
rfemur -20.4469 -2.36861 18.4734
rtibia 31.6013
rfoot -14.8918 -1.2926
rtoes 9.28082
lfemur -19.55 7.85278 -18.9259
ltibia 28.2452
lfoot -11.5796 5.64029
ltoes 1.92877
317
root 0.620759 17.4988 -2.39493 5.81746 -0.758926 -0.855935
lowerback 1.81331 -0.294443 -0.868455
upperback 4.77147 -0.433598 1.45162
thorax 3.91348 -0.279465 1.97594
lowerneck -12.5369 0.165617 -1.77138
upperneck 33.4571 0.419999 0.843434
head 13.3211 0.066922 0.704482
rclavicle 6.90777e-015 3.37934e-015
rhumerus -19.4248 -21.6879 -81.62
rradius 21.3112
rwrist 37.4185
rhand -19.9788 -26.3626
rfingers 7.12502
rthumb 6.36029 -56.2471
lclavicle 6.90777e-015 3.37934e-015
lhumerus -16.414 -0.733539 89.5217
lradius 16.0084
lwrist -0.955795
lhand -25.0604 -4.91936
lfingers 7.12502
lthumb 1.45327 25.0554
rfemur -20.4041 -2.3658 18.4599
rtibia 31.531
rfoot -14.8982 -1.28982
rtoes 9.27099
lfemur -19.4798 7.87018 -18.9406
ltibia 28.1318
lfoot -11.5765 5.64421
ltoes 1.8918
318
root 0.619713 17.5023 -2.38077 5.85534 -0.782085 -0.835724
lowerback 1.7641 -0.295513 -0.89868
upperback 4.7785 -0.434432 1.43939
thorax 3.94885 -0.281062 1.98006
lowerneck -12.5438 0.184491 -1.7771
upperneck 33.5292 0.447453 0.848979
head 13.3533 0.0782869 0.712298
rclavicle 5.31749e-015 7.95139e-015
rhumerus -19.5509 -21.5838 -81.7048
rradius 21.3146
rwrist 37.3266
rhand -19.981 -26.3499
rfingers 7.12502
rthumb 6.35812 -56.2345
lclavicle 5.31749e-015 7.95139e-015
lhumerus -16.4272 -0.903637 89.6136
lradius 16.091
lwrist -0.745305
lhand -25.0864 -4.94376
lfingers 7.12502
lthumb 1.42808 25.0312
rfemur -20.3609 -2.36287 18.4422
rtibia 31.4654
rfoot -14.9062 -1.28231
rtoes 9.27076
lfemur -19.4065 7.89698 -18.9595
ltibia 28.0213
lfoot -11.5767 5.64432
ltoes 1.8598
319
root 0.618477 17.5056 -2.36701 5.88915 -0.810742 -0.81588
lowerback 1.71959 -0.291866 -0.927292
upperback 4.78833 -0.428916 1.42539
thorax 3.98418 -0.279423 1.98158
lowerneck -12.5667 0.200507 -1.76829
upperneck 33.6054 0.469732 0.846928
head 13.3911 0.0882076 0.713926
rclavicle 2.08724e-015 5.56597e-015
rhumerus -19.6566 -21.5114 -81.7866
rradius 21.2911
rwrist 37.2936
rhand -19.9799 -26.3367
rfingers 7.12502
rthumb 6.35923 -56.2213
lclavicle 2.08724e-015 5.56597e-015
lhumerus -16.4266 -1.10553 89.7024
lradius 16.1755
lwrist -0.462368
lhand -25.0944 -4.957
lfingers 7.12502
lthumb 1.42037 25.018
rfemur -20.3166 -2.36272 18.4251
rtibia 31.4024
rfoot -14.9142 -1.26663
rtoes 9.26551
lfemur -19.331 7.93205 -18.9777
ltibia 27.9154
lfoot -11.5798 5.64098
ltoes 1.83052
